<svg id="Layer_2" data-name="Layer 2" xmlns="http://www.w3.org/2000/svg" xmlns:xlink="http://www.w3.org/1999/xlink" viewBox="0 0 363.82 74.81"><defs><style>.cls-1,.cls-2{fill:none;}.cls-1{clip-rule:evenodd;}.cls-3{clip-path:url(#clip-path);}.cls-4{fill:#231f20;}.cls-5{clip-path:url(#clip-path-2);}.cls-6{isolation:isolate;}.cls-7{clip-path:url(#clip-path-3);}.cls-8{clip-path:url(#clip-path-4);}.cls-9{fill:#0046ad;}</style><clipPath id="clip-path" transform="translate(-771 -520)"><path class="cls-1" d="M848,574.29H843.6V556H848c4,0,5.91,1.94,5.91,4.75a3.9,3.9,0,0,1-2.63,3.79,4.31,4.31,0,0,1,3.42,4.4C854.73,572.59,852.19,574.29,848,574.29Zm0-16.17H846v5.57h1.75c2.41,0,3.71-1.06,3.71-2.86S850.46,558.12,848,558.12Zm.11,7.61h-2v6.44h2.12c2.62,0,4.13-1.06,4.13-3.18S850.81,565.73,848.08,565.73Zm16.22,8.56-.27-1.7a5.94,5.94,0,0,1-4.45,2,3.37,3.37,0,0,1-3.71-3.52c0-3.15,2.7-4.4,8-5v-.53c0-1.59-1-2.14-2.42-2.14a10.87,10.87,0,0,0-4.37,1.08l-.32-2a12.23,12.23,0,0,1,4.91-1.06c3.07,0,4.56,1.25,4.56,4.06v8.85Zm-.45-6.41c-4.67.45-5.65,1.72-5.65,3a1.65,1.65,0,0,0,1.88,1.69,5.4,5.4,0,0,0,3.77-1.77Zm8.79,6.67a10.37,10.37,0,0,1-4.61-1.19l.35-2.22a7.9,7.9,0,0,0,4.45,1.45c1.62,0,2.57-.61,2.57-1.67s-.72-1.59-3-2.14c-3-.74-4.16-1.65-4.16-3.9,0-2,1.7-3.5,4.46-3.5a10.22,10.22,0,0,1,4.16.85l-.37,2.23a8.06,8.06,0,0,0-3.85-1.09c-1.43,0-2.17.56-2.17,1.46s.64,1.32,2.62,1.83c3.13.79,4.54,1.69,4.54,4.1S875.9,574.55,872.64,574.55Zm11,0a10.33,10.33,0,0,1-4.61-1.19l.34-2.22a7.9,7.9,0,0,0,4.45,1.45c1.62,0,2.57-.61,2.57-1.67s-.71-1.59-3-2.14c-3-.74-4.16-1.65-4.16-3.9,0-2,1.69-3.5,4.45-3.5a10.22,10.22,0,0,1,4.16.85l-.37,2.23a8,8,0,0,0-3.84-1.09c-1.43,0-2.18.56-2.18,1.46s.64,1.32,2.63,1.83c3.13.79,4.53,1.69,4.53,4.1S886.85,574.55,883.59,574.55Zm12.35,0c-3.29,0-5.86-2-5.86-6.62,0-4.06,2.38-6.55,5.56-6.55,3.69,0,5.39,2.84,5.39,6.34v.5h-8.59c.08,2.94,1.48,4.32,3.68,4.32a6.92,6.92,0,0,0,4.53-1.8l.35,2.12A7.86,7.86,0,0,1,895.94,574.55Zm-3.4-8.11h6.1c-.29-2-1.19-3.2-3-3.2C894.16,563.24,892.92,564.3,892.54,566.44Zm15.11,8.06c-2.23,0-3.69-.79-3.69-3.34v-7.53h-1.9v-2H904v-4.22l2.31-.34v4.56H909l.32,2h-3.05v7.11c0,1,.43,1.67,1.75,1.67a6.67,6.67,0,0,0,1.09-.08l.32,2A8.83,8.83,0,0,1,907.65,574.5Zm8.27,0c-2.23,0-3.69-.79-3.69-3.34v-7.53h-1.91v-2h1.91v-4.22l2.31-.34v4.56h2.73l.32,2h-3.05v7.11c0,1,.42,1.67,1.75,1.67a6.76,6.76,0,0,0,1.09-.08l.31,2A8.71,8.71,0,0,1,915.92,574.5Zm21.22-.21v-8.43h-9.25v8.43H925.4V556h2.49v7.58h9.25V556h2.49v18.29Zm10.23.26c-3.29,0-5.86-2-5.86-6.62,0-4.06,2.39-6.55,5.57-6.55,3.68,0,5.38,2.84,5.38,6.34v.5h-8.59c.08,2.94,1.49,4.32,3.69,4.32a6.94,6.94,0,0,0,4.53-1.8l.34,2.12A7.86,7.86,0,0,1,947.37,574.55ZM944,566.44h6.09c-.29-2-1.19-3.2-3-3.2C945.6,563.24,944.35,564.3,944,566.44Zm18.47,7.85-.26-1.7a6,6,0,0,1-4.46,2A3.37,3.37,0,0,1,954,571c0-3.15,2.71-4.4,8-5v-.53c0-1.59-1-2.14-2.41-2.14a10.88,10.88,0,0,0-4.38,1.08l-.31-2a12.22,12.22,0,0,1,4.9-1.06c3.07,0,4.56,1.25,4.56,4.06v8.85Zm-.45-6.41c-4.66.45-5.65,1.72-5.65,3a1.66,1.66,0,0,0,1.89,1.69,5.39,5.39,0,0,0,3.76-1.77Zm5,6.41V555.52l2.36-.37v19.14Zm9.88.21c-2.23,0-3.68-.79-3.68-3.34v-7.53H971.3v-2h1.91v-4.22l2.3-.34v4.56h2.73l.32,2h-3v7.11c0,1,.43,1.67,1.75,1.67a6.58,6.58,0,0,0,1.09-.08l.32,2A8.83,8.83,0,0,1,976.89,574.5Zm11.93-.21v-8.61c0-1.3-.56-2.18-1.94-2.18a5.38,5.38,0,0,0-3.65,2v8.75h-2.36V555.52l2.36-.37v8.17a6.55,6.55,0,0,1,4.29-1.94,3.36,3.36,0,0,1,3.66,3.71v9.2Zm10,.26c-3.4,0-5.89-2.35-5.89-6.57s2.65-6.6,6.05-6.6a6.84,6.84,0,0,1,4,1.17l-.34,2.3a5.73,5.73,0,0,0-3.71-1.4c-2.17,0-3.63,1.59-3.63,4.5,0,3.08,1.59,4.54,3.71,4.54a5.53,5.53,0,0,0,3.76-1.41l.35,2.18A6.85,6.85,0,0,1,998.81,574.55Zm14.2-.26-.26-1.7a6,6,0,0,1-4.46,2,3.37,3.37,0,0,1-3.71-3.52c0-3.15,2.71-4.4,8-5v-.53c0-1.59-.95-2.14-2.41-2.14a10.88,10.88,0,0,0-4.38,1.08l-.31-2a12.22,12.22,0,0,1,4.9-1.06c3.08,0,4.56,1.25,4.56,4.06v8.85Zm-.45-6.41c-4.66.45-5.65,1.72-5.65,3a1.66,1.66,0,0,0,1.89,1.69,5.37,5.37,0,0,0,3.76-1.77Zm7.18-1.06v7.47h-2.36V561.65h1.88l.4,2.57a5.62,5.62,0,0,1,4.43-2.84l.37,2.25A5.8,5.8,0,0,0,1019.74,566.82Zm10.6,7.73c-3.29,0-5.86-2-5.86-6.62,0-4.06,2.39-6.55,5.57-6.55,3.68,0,5.38,2.84,5.38,6.34v.5h-8.59c.08,2.94,1.49,4.32,3.69,4.32a6.94,6.94,0,0,0,4.53-1.8l.34,2.12A7.86,7.86,0,0,1,1030.34,574.55Zm-3.39-8.11H1033c-.29-2-1.19-3.2-3-3.2C1028.57,563.24,1027.32,564.3,1027,566.44Zm28.67,7.85-10-14.23v14.23h-2.31V556h2.23l9.7,13.7V556h2.31v18.29Zm9.62.26c-3.29,0-5.86-2-5.86-6.62,0-4.06,2.39-6.55,5.57-6.55,3.68,0,5.38,2.84,5.38,6.34v.5h-8.59c.08,2.94,1.49,4.32,3.69,4.32a6.94,6.94,0,0,0,4.53-1.8l.34,2.12A7.86,7.86,0,0,1,1065.24,574.55Zm-3.39-8.11h6.09c-.29-2-1.19-3.2-3-3.2C1063.46,563.24,1062.22,564.3,1061.85,566.44Zm15.1,8.06c-2.22,0-3.68-.79-3.68-3.34v-7.53h-1.91v-2h1.91v-4.22l2.31-.34v4.56h2.73l.31,2h-3v7.11c0,1,.42,1.67,1.75,1.67a6.54,6.54,0,0,0,1.08-.08l.32,2A8.83,8.83,0,0,1,1077,574.5Zm16.22-.16h-2l-2.81-9.54-2.79,9.54h-2l-4.05-12.51,2.3-.37,2.76,9.54,2.78-9.35h2l2.78,9.35,2.68-9.35h2.36Zm10.12.21c-3.36,0-5.8-2.41-5.8-6.57s2.44-6.6,5.8-6.6,5.89,2.44,5.89,6.6S1106.69,574.55,1103.29,574.55Zm0-11.21c-2.27,0-3.41,2-3.41,4.64s1.19,4.61,3.41,4.61,3.5-2,3.5-4.61S1105.57,563.34,1103.29,563.34Zm10,3.48v7.47H1111V561.65h1.88l.4,2.57a5.61,5.61,0,0,1,4.42-2.84l.37,2.25A5.8,5.8,0,0,0,1113.34,566.82Zm13.91,7.66-5.62-6.82v6.63h-2.36V555.52l2.36-.37V567l4.9-5.3h2.84l-5.33,5.59,5.78,6.84Z"/></clipPath><clipPath id="clip-path-2" transform="translate(-771 -520)"><rect class="cls-2" x="776" y="525" width="49.67" height="64.81"/></clipPath><clipPath id="clip-path-3" transform="translate(-771 -520)"><rect class="cls-2" x="776" y="525" width="50" height="65"/></clipPath><clipPath id="clip-path-4" transform="translate(-771 -520)"><path class="cls-1" d="M790.6,556.28c-1.85.29-3.61.64-5.22,1v-1.83a14.42,14.42,0,0,1,4.27-1.27l1-.16Zm.1-3.08-.21-.94,2.11-7.66,1.48-1.37-.63,1.47-1.27,7.45.15.75.27,0a60.24,60.24,0,0,1,8.94-.6,54.44,54.44,0,0,1,8,.67l-.06-.87.11-.32-1.48-7-2-2.2,3.16,2.1,2.32,7.55v1.09l.78.13a14.24,14.24,0,0,1,3.5,1l0-.07.1-.73-.47-.48-.16-1-.26-1.68-.27-1.89-.42-1.89-.37-1.26-.26-.63-.69-.58-1-.78-1.16-.84-3-1.68-1.69-.84-1.42-.63-.11-.37-.21-.42-.26-.63-.43-.1-.95-.32-.16-.21-.1-.47-.74-.21-.51-.13v-2.08a1.75,1.75,0,1,0-2-1.73,1.74,1.74,0,0,0,1.46,1.72v2l-.83.16-.69.26,0,.16-.16.42-.84.26-.63.21-.27.26-.37.63-.53.58-.95.47-2.32,1.2-2,1.47-1.69,1.11-1.27,1-.26.68-.64,2.58-.47,3.51-.27,1.73-.42.89.58.54A28.52,28.52,0,0,1,790.7,553.2Zm18.93.55h0a54.19,54.19,0,0,0-7.91-.68h-.16a69.94,69.94,0,0,0-9,.68h0l-.18,2.28v0h0a71.42,71.42,0,0,1,9.27-.68h.33a62.19,62.19,0,0,1,7.78.47h0l-.1-2.07Zm2,.31h0l-.19,2v0h0c1.75.26,3.39.58,4.87.95h0v-1.67h0a18,18,0,0,0-3.92-1.16Zm14.07-6.68v42.43H776V547.33C776,535,787.14,525,800.84,525S825.67,535,825.67,547.38Zm-47.5,0v40l7.57-4.62v-25a146.37,146.37,0,0,1,15.85-1.53,66.62,66.62,0,0,1,14.29,1.44l0,.08v24.95l7.57,4.63V547.38c0-11.14-10.17-20.21-22.66-20.21S778.17,536.21,778.17,547.33Zm10.27,33.52h2V562.41c0-.73-.44-1.31-1-1.31s-1,.58-1,1.31Zm9.39,0,0-18.38a2.3,2.3,0,0,0-4.59,0v18.38Zm4.9,0h6.54V562.74a3.36,3.36,0,0,0-6.59,0Zm9.25,0h2.18V562.41a1.12,1.12,0,1,0-2.2,0Z"/></clipPath></defs><title>bassett-logo-header</title><g class="cls-3"><rect class="cls-4" x="67.6" y="30.15" width="296.22" height="29.4"/></g><g class="cls-5"><g class="cls-6"><g class="cls-7"><g class="cls-8"><g class="cls-7"><rect class="cls-9" width="59.67" height="74.81"/></g></g></g></g></g></svg>